<svg width="197" height="236" viewBox="0 0 197 236" fill="none" xmlns="http://www.w3.org/2000/svg">
<path d="M1.72072 138.629C1.62038 145.281 4.48871 151.809 8.13837 151.862C10.9922 151.902 10.8895 151.659 12.259 154.109C14.0386 157.29 21.1552 156.711 26.976 153.47C32.7967 150.226 35.1216 145.549 33.342 142.367C32.1941 140.313 29.6146 139.39 26.3652 139.861C27.2808 138.859 28.0932 137.768 28.7904 136.605C32.2063 130.892 31.5172 125.465 27.9336 123.331C24.3536 121.199 19.2381 123.166 15.8222 128.878C15.0904 130.106 14.4893 131.406 14.0287 132.758C12.9069 129.652 10.8611 127.798 8.49509 127.763C4.84138 127.714 1.81701 131.974 1.72072 138.629Z" fill="#FFFDE5"/>
<path d="M8.47653 128.925C5.29846 128.925 2.96725 133.013 2.88546 138.645C2.83848 141.71 3.45565 144.839 4.57688 147.225C5.60588 149.414 6.91041 150.679 8.15461 150.697L8.8495 150.703C11.4307 150.717 11.8449 150.984 13.2764 153.539C13.8153 154.503 15.2979 155.056 17.346 155.056C20.0931 155.056 23.4824 154.084 26.4081 152.453C28.9771 151.022 30.9597 149.204 31.9893 147.333C32.8849 145.706 33.0038 144.145 32.3252 142.932C31.4296 141.332 29.2683 140.613 26.5311 141.008C26.2936 141.043 26.051 141.004 25.8369 140.895C25.6228 140.787 25.4479 140.615 25.3362 140.403C25.2241 140.191 25.18 139.95 25.21 139.712C25.24 139.475 25.3426 139.252 25.5038 139.075C26.3673 138.131 27.1334 137.104 27.7904 136.007C30.7057 131.133 30.5148 126.22 27.3368 124.328C26.5868 123.879 25.7503 123.654 24.8478 123.654C22.0021 123.654 19.0003 125.829 16.8211 129.473C16.1305 130.631 15.5636 131.857 15.1297 133.132C15.0522 133.361 14.9053 133.559 14.7094 133.7C14.5135 133.842 14.2785 133.918 14.0369 133.92H14.0247C13.5345 133.92 13.096 133.613 12.9296 133.153C11.9887 130.533 10.3217 128.954 8.47653 128.925ZM17.3484 157.38C14.3872 157.38 12.2202 156.418 11.2445 154.673C10.8385 153.946 10.4528 153.259 10.2521 153.128C10.1088 153.034 9.52004 153.032 8.83732 153.028L8.12212 153.021C5.91969 152.989 3.9104 151.28 2.46899 148.211C1.20216 145.516 0.504946 142.015 0.556571 138.61C0.658659 131.538 3.89822 126.601 8.43129 126.601H8.51134C10.6436 126.633 12.5606 127.843 13.9325 129.936C14.2068 129.372 14.5044 128.817 14.8263 128.281C17.4278 123.928 21.1761 121.33 24.8501 121.33C26.1767 121.33 27.4151 121.668 28.5322 122.332C32.8687 124.917 33.3994 131.17 29.7933 137.2C29.5037 137.684 29.1952 138.156 28.8687 138.616C31.3617 138.833 33.3362 139.967 34.3611 141.8C35.4458 143.738 35.3292 146.101 34.0334 148.454C32.7782 150.734 30.5334 152.819 27.5462 154.485C24.2863 156.297 20.4748 157.38 17.3484 157.38Z" fill="black"/>
<path d="M86.233 132.25C78.7846 141.012 71.0363 163.402 55.0096 172.604C41.1558 180.557 23.23 174.521 20.5525 159.973C18.2051 147.233 23.3861 141.661 19.7097 138.528C14.5943 134.168 -0.350045 147.88 3.8553 170.2C8.47827 194.74 35.3634 207.885 65.0149 199.043C92.1501 190.95 103.829 168.358 108.013 156.715" fill="#D3EDFB"/>
<path d="M46.737 202.953C37.15 202.953 28.1372 200.637 20.6616 196.09C11.1117 190.283 4.73697 181.163 2.71145 170.416C-0.56698 153.021 7.48059 141.182 13.3217 137.806C16.0978 136.201 18.7039 136.142 20.4667 137.646C22.7793 139.616 22.3472 142.303 21.7996 145.706C21.2706 148.999 20.545 153.511 21.697 159.764C22.7735 165.608 26.4928 170.271 32.172 172.894C39.0073 176.052 47.5346 175.556 54.4296 171.597C65.0253 165.513 72.0375 153.293 77.6715 143.476C80.4662 138.606 82.8792 134.401 85.3455 131.499C85.5473 131.27 85.8314 131.129 86.1364 131.107C86.4414 131.084 86.7429 131.183 86.9759 131.38C87.2089 131.578 87.3547 131.859 87.3818 132.163C87.409 132.467 87.3153 132.77 87.1211 133.005C84.7939 135.743 82.4302 139.862 79.693 144.632C73.9198 154.693 66.7336 167.216 55.592 173.615C48.0531 177.942 38.7039 178.476 31.1941 175.006C24.9035 172.1 20.6065 166.698 19.4069 160.185C18.183 153.539 18.9435 148.8 19.4992 145.34C20.034 142.011 20.2167 140.492 18.9539 139.416C17.9858 138.592 16.36 138.739 14.4881 139.819C9.19869 142.876 1.94288 153.772 4.99973 169.988C6.90229 180.08 12.893 188.646 21.8733 194.108C33.5067 201.183 49.1094 202.577 64.6808 197.934C92.2574 189.71 103.405 166.097 106.917 156.328C106.968 156.184 107.048 156.052 107.15 155.939C107.253 155.826 107.377 155.734 107.515 155.669C107.654 155.604 107.803 155.567 107.956 155.559C108.109 155.552 108.261 155.575 108.405 155.626C108.696 155.731 108.934 155.946 109.065 156.225C109.197 156.504 109.213 156.823 109.108 157.114C105.475 167.216 93.9424 191.636 65.3472 200.162C59.0775 202.03 52.7916 202.953 46.737 202.953Z" fill="black"/>
<path d="M104.954 157.834C116.015 151.374 123.611 155.668 128.247 154.368C135.056 152.459 119.17 151.491 122.598 138.393C129.102 113.528 185.499 136.241 185.378 158.137C185.226 185.286 159.463 202.702 127.466 202.876C103.457 203.006 93.3206 192.671 90.9424 181.967" fill="#D3EDFB"/>
<path d="M127.016 204.04C97.8136 204.042 91.269 188.8 89.8072 182.219C89.7741 182.07 89.7708 181.915 89.7974 181.765C89.824 181.615 89.88 181.471 89.9623 181.342C90.0445 181.213 90.1514 181.102 90.2768 181.014C90.4021 180.927 90.5436 180.865 90.693 180.832C90.8424 180.799 90.9969 180.795 91.1476 180.822C91.2983 180.848 91.4423 180.904 91.5713 180.986C91.7004 181.068 91.812 181.175 91.8997 181.3C91.9875 181.425 92.0497 181.567 92.0828 181.716C93.4302 187.778 99.5828 201.867 127.463 201.713C160.205 201.535 184.075 183.207 184.216 158.131C184.288 145.252 162.637 131.372 144.863 129.046C138.143 128.164 126.458 128.248 123.729 138.685C121.865 145.811 126.122 148.8 128.937 150.777C130.314 151.745 131.311 152.444 131.11 153.615C130.917 154.74 129.695 155.172 128.565 155.487C126.854 155.966 124.92 155.788 122.677 155.581C118.23 155.172 112.694 154.66 105.545 158.837C105.279 158.992 104.961 159.036 104.663 158.958C104.364 158.88 104.109 158.687 103.952 158.421C103.797 158.155 103.753 157.839 103.831 157.541C103.909 157.243 104.102 156.988 104.368 156.832C112.163 152.279 118.364 152.852 122.893 153.267C124.904 153.453 126.64 153.613 127.936 153.248C128.057 153.214 128.166 153.183 128.262 153.152C128.049 152.995 127.811 152.829 127.596 152.677C124.871 150.764 119.202 146.784 121.474 138.098C123.799 129.214 132.433 125.072 145.165 126.74C163.971 129.201 186.623 143.758 186.543 158.143C186.467 171.56 180.423 183.113 169.058 191.553C158.34 199.516 143.569 203.949 127.471 204.037C127.321 204.04 127.165 204.04 127.016 204.04Z" fill="black"/>
<path d="M91.6703 221.48C89.8763 220.528 87.6825 219.988 85.3124 219.988C79.2538 219.988 74.3414 223.52 74.3414 228.435C74.3414 233.352 81.3043 234.764 87.3629 234.764C87.3629 234.764 101.468 236.084 106.551 227.037C111.634 217.987 108.86 200.706 108.86 200.706L84.8345 188.996C84.8345 188.996 86.715 210.792 83.6622 219.99" fill="#D3EDFB"/>
<path d="M85.3125 221.15C79.7214 221.15 75.5062 224.281 75.5062 228.435C75.5062 233.229 84.5805 233.601 87.3629 233.601C87.3995 233.601 87.4366 233.604 87.4714 233.606C87.6066 233.618 100.89 234.739 105.536 226.466C109.852 218.785 108.212 204.545 107.796 201.478L86.1489 190.925C86.5137 196.262 87.2417 210.665 85.2081 218.824C87.7771 218.795 90.182 219.372 92.2179 220.453C92.353 220.524 92.4725 220.622 92.5698 220.739C92.6671 220.857 92.7402 220.993 92.7849 221.139C92.8296 221.285 92.845 221.438 92.8304 221.59C92.8157 221.742 92.7712 221.889 92.6994 222.024C92.6278 222.159 92.5303 222.278 92.4124 222.376C92.2945 222.473 92.1585 222.546 92.0123 222.59C91.866 222.635 91.7124 222.651 91.5602 222.636C91.4079 222.621 91.2601 222.577 91.1251 222.505C89.4523 221.619 87.443 221.15 85.3125 221.15ZM89.3473 236C88.2754 236 87.541 235.945 87.3113 235.926C78.3293 235.916 73.1767 233.186 73.1767 228.435C73.1767 223.659 77.1419 219.906 82.7434 219.024C85.4209 209.833 83.693 189.305 83.6744 189.094C83.6565 188.889 83.6935 188.683 83.7818 188.497C83.8701 188.311 84.0064 188.152 84.1767 188.036C84.523 187.799 84.9702 187.766 85.3455 187.95L109.371 199.661C109.538 199.743 109.684 199.864 109.795 200.013C109.906 200.162 109.98 200.336 110.01 200.52C110.127 201.243 112.79 218.306 107.568 227.604C103.344 235.124 93.6408 236 89.3473 236Z" fill="black"/>
<path d="M139.881 221.48C141.675 220.528 143.869 219.988 146.239 219.988C152.297 219.988 157.21 223.52 157.21 228.435C157.21 233.352 150.247 234.764 144.188 234.764C144.188 234.764 130.083 236.084 125 227.037C119.917 217.987 122.691 200.706 122.691 200.706L146.717 188.996C146.717 188.996 144.836 210.792 147.889 219.99" fill="#D3EDFB"/>
<path d="M123.756 201.48C123.339 204.547 121.705 218.793 126.015 226.468C130.673 234.76 143.947 233.62 144.08 233.608C144.117 233.604 144.152 233.604 144.189 233.604C146.971 233.604 156.045 233.231 156.045 228.437C156.045 224.285 151.828 221.152 146.239 221.152C144.109 221.152 142.1 221.621 140.426 222.509C140.291 222.581 140.143 222.625 139.991 222.64C139.839 222.655 139.685 222.639 139.539 222.595C139.393 222.55 139.257 222.477 139.139 222.38C139.021 222.282 138.924 222.163 138.852 222.028C138.78 221.893 138.736 221.746 138.721 221.594C138.706 221.442 138.722 221.289 138.766 221.143C138.811 220.997 138.884 220.861 138.982 220.743C139.079 220.626 139.198 220.528 139.333 220.457C141.369 219.376 143.822 218.799 146.343 218.828C144.31 210.669 145.038 196.266 145.402 190.929L123.756 201.48ZM142.204 236C137.909 236 128.207 235.124 123.983 227.604C118.763 218.308 121.427 201.243 121.542 200.52C121.571 200.336 121.645 200.162 121.756 200.013C121.867 199.863 122.013 199.743 122.181 199.661L146.206 187.95C146.392 187.86 146.598 187.82 146.803 187.835C147.009 187.85 147.207 187.92 147.377 188.036C147.547 188.152 147.683 188.312 147.771 188.498C147.859 188.684 147.895 188.89 147.877 189.094C147.859 189.305 146.13 209.831 148.808 219.024C154.409 219.908 158.375 223.659 158.375 228.435C158.375 233.186 153.224 235.916 144.24 235.926C143.563 235.979 142.883 236.003 142.204 236Z" fill="black"/>
<path d="M115.775 205.016C151.772 205.016 154.643 179.324 151.653 165.045C148.666 150.767 143.389 139.547 143.389 131.098H88.1646C88.1646 139.547 82.885 150.764 79.8977 165.045C76.9082 179.324 79.7788 205.016 115.775 205.016Z" fill="#D3EDFB"/>
<path d="M115.775 206.178C110.293 206.178 105.307 205.583 100.95 204.406C100.8 204.368 100.66 204.3 100.537 204.208C100.414 204.115 100.31 203.998 100.233 203.865C100.155 203.732 100.104 203.585 100.084 203.432C100.064 203.28 100.074 203.124 100.114 202.976C100.155 202.827 100.224 202.688 100.319 202.566C100.414 202.444 100.532 202.343 100.666 202.267C100.801 202.191 100.949 202.143 101.102 202.125C101.255 202.107 101.411 202.119 101.559 202.161C105.717 203.283 110.5 203.854 115.775 203.854C121.049 203.854 125.834 203.285 129.998 202.161C130.292 202.092 130.602 202.14 130.862 202.295C131.121 202.45 131.31 202.699 131.389 202.99C131.468 203.281 131.431 203.592 131.285 203.856C131.139 204.12 130.896 204.317 130.607 204.406C126.242 205.583 121.254 206.178 115.775 206.178Z" fill="black"/>
<path d="M86.8971 196.391C86.7405 196.392 86.5854 196.36 86.4413 196.299C86.2971 196.238 86.1669 196.148 86.0584 196.035C75.5056 185.105 77.8043 169.369 78.7597 164.808C80.0265 158.749 81.7179 153.192 83.2086 148.289C85.2428 141.6 86.9998 135.821 86.9998 131.101C86.9998 130.458 87.5207 129.938 88.164 129.938H143.386C144.03 129.938 144.551 130.458 144.551 131.101C144.551 135.821 146.308 141.6 148.342 148.291C149.832 153.194 151.524 158.751 152.791 164.81C153.746 169.373 156.043 185.106 145.488 196.038C145.273 196.259 144.98 196.387 144.671 196.393C144.362 196.398 144.064 196.282 143.842 196.068C143.619 195.854 143.491 195.561 143.486 195.253C143.48 194.945 143.597 194.647 143.811 194.425C153.572 184.317 151.407 169.566 150.509 165.287C149.263 159.33 147.589 153.824 146.111 148.968C144.18 142.619 142.492 137.069 142.248 132.265H89.3003C89.0561 137.069 87.3687 142.617 85.4372 148.966C83.9592 153.824 82.2863 159.328 81.0392 165.287C80.1437 169.567 77.9766 184.317 87.7359 194.427C87.842 194.537 87.9253 194.667 87.9812 194.809C88.0371 194.951 88.0643 195.102 88.0615 195.255C88.0586 195.408 88.0257 195.558 87.9646 195.698C87.9034 195.838 87.8153 195.964 87.7051 196.07C87.4869 196.276 87.1978 196.391 86.8971 196.391Z" fill="black"/>
<path d="M135.622 182.605C135.622 196.992 126.738 203.283 115.775 203.283C104.815 203.283 95.929 196.991 95.929 182.605C95.929 173.69 97.6367 163.164 97.6367 163.164C97.6367 163.164 104.099 165.841 115.775 166.477C127.228 167.101 133.594 166.518 133.594 166.518C133.594 166.518 135.622 173.688 135.622 182.605Z" fill="#FFFDE5"/>
<path d="M98.5775 164.736C98.1245 167.873 97.0932 175.767 97.0932 182.605C97.0932 194.825 104.076 202.12 115.775 202.12C127.474 202.12 134.458 194.825 134.458 182.605C134.458 175.776 133.229 169.929 132.705 167.748C131.491 167.822 129.18 167.928 125.842 167.928C122.652 167.928 119.244 167.83 115.712 167.637C106.942 167.161 101.091 165.56 98.5775 164.736ZM115.775 204.445C102.619 204.445 94.7643 196.28 94.7643 182.604C94.7643 173.698 96.4697 163.083 96.4865 162.976C96.5148 162.803 96.5819 162.639 96.6828 162.495C96.7837 162.352 96.9158 162.233 97.0691 162.148C97.2225 162.062 97.3932 162.013 97.5685 162.002C97.7439 161.992 97.9192 162.021 98.0816 162.088C98.1448 162.115 104.536 164.699 115.837 165.315C119.326 165.505 122.693 165.601 125.84 165.601C130.765 165.601 133.459 165.362 133.485 165.358C133.756 165.333 134.027 165.403 134.251 165.556C134.476 165.71 134.638 165.937 134.712 166.199C134.796 166.498 136.784 173.627 136.784 182.604C136.786 196.28 128.932 204.445 115.775 204.445Z" fill="black"/>
<path d="M96.1443 176.598C96.1443 176.598 101.848 178.275 115.775 178.714C127.804 179.092 135.409 177.629 135.409 177.629" fill="#FFFDE5"/>
<path d="M119.77 179.939C118.49 179.939 117.145 179.919 115.739 179.875C101.822 179.438 96.0544 177.782 95.8142 177.713C95.5178 177.625 95.2683 177.424 95.1205 177.154C94.9726 176.883 94.9386 176.565 95.0259 176.269C95.1132 175.973 95.3147 175.724 95.586 175.576C95.8573 175.429 96.1762 175.395 96.4726 175.482C96.552 175.505 102.287 177.127 115.813 177.551C127.549 177.922 135.114 176.502 135.19 176.485C135.493 176.427 135.806 176.492 136.062 176.665C136.317 176.837 136.494 177.104 136.553 177.406C136.612 177.708 136.547 178.022 136.374 178.277C136.201 178.532 135.934 178.708 135.63 178.767C135.35 178.824 129.426 179.939 119.77 179.939Z" fill="black"/>
<path d="M96.9766 190.408C96.9766 190.408 104.151 192.108 115.775 192.108C127.402 192.108 134.572 190.408 134.572 190.408" fill="#FFFDE5"/>
<path d="M115.775 193.268C104.148 193.268 97.0074 191.608 96.708 191.537C96.5592 191.502 96.4188 191.438 96.2949 191.348C96.1709 191.259 96.0659 191.146 95.9857 191.016C95.9055 190.886 95.8518 190.741 95.8277 190.591C95.8035 190.44 95.8094 190.286 95.8449 190.138C95.9167 189.838 96.1045 189.579 96.3673 189.417C96.63 189.255 96.9463 189.203 97.2469 189.274C97.3188 189.291 104.445 190.942 115.775 190.942C127.107 190.942 134.232 189.291 134.304 189.274C134.605 189.203 134.921 189.255 135.184 189.417C135.447 189.579 135.634 189.838 135.706 190.138C135.777 190.437 135.726 190.753 135.564 191.016C135.402 191.278 135.143 191.466 134.843 191.537C134.542 191.608 127.405 193.268 115.775 193.268Z" fill="black"/>
<path d="M190.264 146.889C193.063 143.05 194.68 138.545 194.959 135.496C195.32 131.547 193.938 128.941 191.541 128.103C188.936 127.19 186.089 129.204 181.6 131.993C176.806 134.972 170.93 135.588 166.563 134.051L166.567 134.055C166.101 133.893 165.623 133.742 165.125 133.611C158.064 131.731 150.661 134.417 146.341 139.009C142.466 143.128 141.49 149.269 142.312 155.246C143.612 164.724 150.417 171.589 158.501 172.61C162.829 173.154 166.485 172.35 169.411 170.672L169.174 170.942C182.38 171.055 191.763 159.193 190.282 146.867L190.264 146.889Z" fill="white"/>
<path d="M161.145 173.942C160.235 173.942 159.304 173.883 158.355 173.763C149.561 172.655 142.488 165.104 141.158 155.405C140.184 148.325 141.723 142.219 145.492 138.215C150.458 132.938 158.468 130.635 165.424 132.49C175.586 135.195 179.387 143.905 179.543 144.275C179.663 144.559 179.665 144.879 179.549 145.165C179.434 145.451 179.21 145.679 178.926 145.8C178.641 145.92 178.321 145.923 178.035 145.807C177.749 145.692 177.521 145.468 177.4 145.184C177.357 145.086 173.845 137.136 164.826 134.736C157.717 132.846 150.849 135.921 147.191 139.807C143.913 143.291 142.59 148.718 143.466 155.09C144.655 163.75 150.898 170.482 158.648 171.458C165.437 172.311 171.114 169.663 174.224 164.195C176.155 160.801 176.695 156.506 175.668 152.708C174.388 147.986 170.441 144.044 167.407 144.45C165.832 144.656 165.037 145.728 164.647 146.592C163.731 148.626 164.135 151.497 165.652 153.737C166.655 155.215 167.799 156.099 168.873 156.226C169.505 156.299 169.982 156.099 170.199 155.902C170.572 155.563 170.823 154.881 170.837 154.165C170.845 153.676 170.745 152.743 169.974 151.99C169.763 151.772 169.645 151.481 169.646 151.178C169.647 150.876 169.766 150.585 169.978 150.369C170.19 150.152 170.479 150.027 170.782 150.019C171.085 150.012 171.379 150.123 171.602 150.328C172.637 151.339 173.191 152.716 173.164 154.208C173.14 155.573 172.616 156.85 171.766 157.621C170.981 158.335 169.797 158.677 168.596 158.535C167.354 158.388 165.5 157.662 163.72 155.041C161.736 152.115 161.266 148.423 162.521 145.64C163.415 143.658 165.041 142.415 167.1 142.146C171.782 141.54 176.476 146.796 177.915 152.104C179.098 156.481 178.474 161.431 176.25 165.346C173.09 170.897 167.68 173.942 161.145 173.942Z" fill="black"/>
<path d="M184.199 153.672C183.943 153.671 183.694 153.586 183.49 153.429C183.287 153.273 183.142 153.054 183.076 152.806C183.01 152.558 183.028 152.296 183.127 152.06C183.226 151.823 183.401 151.626 183.623 151.499C189.887 147.94 193.399 139.784 193.801 135.391C194.098 132.15 193.135 129.893 191.156 129.201C189.299 128.548 186.918 130.04 183.318 132.293L182.215 132.98C177.342 136.009 171.045 136.86 166.176 135.148C166.028 135.1 165.891 135.023 165.774 134.921C165.656 134.82 165.561 134.696 165.492 134.557C165.423 134.418 165.383 134.267 165.374 134.112C165.364 133.957 165.386 133.802 165.438 133.656C165.49 133.51 165.57 133.375 165.675 133.26C165.779 133.146 165.906 133.053 166.047 132.988C166.188 132.923 166.34 132.886 166.495 132.881C166.651 132.875 166.805 132.901 166.951 132.956C171.176 134.444 176.687 133.679 180.985 131.008L182.082 130.324C186.106 127.808 189.012 125.989 191.929 127.01C194.949 128.068 196.516 131.28 196.122 135.606C195.662 140.632 191.839 149.512 184.778 153.523C184.601 153.62 184.402 153.671 184.199 153.672Z" fill="black"/>
<path d="M169.364 172.107H169.167C168.863 172.099 168.573 171.972 168.361 171.754C168.149 171.536 168.031 171.243 168.033 170.94C168.034 170.636 168.154 170.344 168.368 170.128C168.582 169.912 168.872 169.788 169.177 169.782C169.245 169.784 169.302 169.782 169.361 169.782C175.01 169.782 180.195 167.464 183.982 163.24C187.959 158.804 189.833 152.888 189.128 147.005C189.102 146.705 189.194 146.406 189.385 146.172C189.575 145.937 189.85 145.786 190.15 145.75C190.45 145.714 190.752 145.796 190.993 145.978C191.234 146.161 191.395 146.429 191.441 146.728C192.228 153.271 190.143 159.856 185.719 164.789C181.482 169.512 175.68 172.107 169.364 172.107Z" fill="black"/>
<path d="M152.656 150.527C152.656 150.527 162.915 159.359 169.296 172.947C175.68 186.532 172.734 199.593 163.705 201.594C154.669 203.596 152.334 192.576 151.777 183.755C150.913 170.076 152.656 150.527 152.656 150.527Z" fill="#D3EDFB"/>
<path d="M153.623 153.036C153.199 158.671 152.268 173.054 152.938 183.684C153.428 191.433 155.335 200.672 161.646 200.672C162.214 200.672 162.821 200.6 163.452 200.461C166.249 199.841 168.475 197.993 169.89 195.12C172.585 189.649 171.953 181.341 168.24 173.443C163.598 163.552 156.783 156.154 153.623 153.036ZM161.646 202.996C155.128 202.996 151.415 196.547 150.614 183.829C149.754 170.218 151.479 150.621 151.495 150.425C151.534 149.991 151.813 149.615 152.217 149.451C152.623 149.289 153.084 149.363 153.414 149.648C153.841 150.016 163.936 158.798 170.347 172.454C174.413 181.106 175.024 189.962 171.977 196.145C170.239 199.675 167.465 201.953 163.953 202.73C163.196 202.902 162.422 202.992 161.646 202.996Z" fill="black"/>
<path d="M161.241 185.014C161.241 185.014 162.662 187.748 162.53 190.594C162.376 193.925 159.473 195.608 157.292 195.153C155.11 194.699 153.698 191.914 154.296 188.693" fill="#D3EDFB"/>
<path d="M158.017 196.389C157.691 196.389 157.369 196.356 157.056 196.291C154.165 195.689 152.451 192.258 153.154 188.481C153.181 188.33 153.238 188.187 153.321 188.058C153.404 187.93 153.512 187.819 153.638 187.732C153.764 187.646 153.907 187.585 154.056 187.554C154.206 187.522 154.361 187.521 154.512 187.549C154.815 187.606 155.083 187.78 155.258 188.034C155.433 188.288 155.5 188.601 155.444 188.904C154.927 191.685 156.125 193.723 157.531 194.016C158.31 194.177 159.248 193.928 159.98 193.361C160.822 192.708 161.316 191.707 161.372 190.541C161.484 188.055 160.222 185.573 160.209 185.548C160.075 185.275 160.054 184.961 160.149 184.672C160.245 184.384 160.45 184.144 160.72 184.004C160.991 183.865 161.305 183.836 161.596 183.925C161.887 184.014 162.132 184.213 162.278 184.48C162.342 184.603 163.84 187.527 163.697 190.648C163.612 192.503 162.799 194.12 161.407 195.198C160.406 195.969 159.192 196.389 158.017 196.389Z" fill="black"/>
<path d="M177.191 63.7614C172.291 66.8718 166.998 67.4137 165.361 64.9707C163.725 62.5295 166.37 58.028 171.27 54.9176C176.166 51.8071 183.609 49.9066 185.245 52.3455C186.881 54.7908 182.092 60.6533 177.191 63.7614Z" fill="#D3EDFB"/>
<path d="M182.202 52.3988C179.425 52.3988 175.092 53.8698 171.898 55.9C168.837 57.8416 166.569 60.475 166.118 62.6094C165.969 63.3151 166.04 63.8923 166.331 64.3264C166.922 65.2081 168.306 65.3389 169.079 65.3389C171.246 65.3389 174.045 64.3837 176.568 62.7813C180.345 60.3853 183.836 56.4522 184.351 54.0174C184.419 53.7002 184.46 53.2666 184.277 52.9945C184.029 52.6217 183.252 52.3988 182.202 52.3988ZM169.079 67.6638C166.94 67.6638 165.277 66.9373 164.394 65.6174C163.752 64.6599 163.559 63.4523 163.838 62.1307C164.42 59.3722 167.028 56.2334 170.647 53.9398C174.229 51.6642 178.981 50.0762 182.202 50.0762C184.142 50.0762 185.491 50.6245 186.215 51.703C186.721 52.4625 186.862 53.4014 186.631 54.4985C185.893 57.9892 181.54 62.3825 177.817 64.7438C174.893 66.5975 171.709 67.6638 169.079 67.6638Z" fill="black"/>
<path d="M84.9499 44.7764C88.8681 49.051 90.3235 54.1627 88.1976 56.194C86.0694 58.226 81.1715 56.4071 77.251 52.1325C73.3333 47.8579 70.1657 40.8741 72.2875 38.8421C74.4157 36.8108 81.03 40.5018 84.9499 44.7764Z" fill="#D3EDFB"/>
<path d="M73.987 39.432C73.6999 39.432 73.3125 39.4749 73.0932 39.6839C71.8281 40.8932 74.1205 46.9971 78.11 51.3493C80.6257 54.0932 83.6686 55.8652 85.8641 55.8652C86.5248 55.8652 87.0393 55.6933 87.3937 55.3558C88.8247 53.989 87.82 49.6305 84.0909 45.5626C81.0439 42.2397 76.4169 39.432 73.987 39.432ZM85.8641 58.1895C83.0039 58.1895 79.3751 56.1703 76.3919 52.9187C72.3919 48.5561 68.5886 40.7722 71.4818 38.0056C72.1048 37.4105 72.9476 37.1077 73.9847 37.1077C77.4337 37.1077 82.7046 40.6084 85.8067 43.9932C90.2168 48.8038 91.6193 54.5332 89.001 57.0335C88.2139 57.7907 87.1274 58.1895 85.8641 58.1895Z" fill="black"/>
<path d="M185.431 22.1947C182.362 21.2372 179.096 22.9519 178.141 26.0149C177.411 28.36 176.314 29.8617 174.789 30.6171C174.089 30.9628 173.313 31.1509 172.525 31.2389C173.563 26.6945 174.241 21.7363 174.286 16.4717C174.315 13.3098 171.807 10.7157 168.658 10.6133C168.611 10.611 168.564 10.611 168.514 10.611C166.97 10.598 165.484 11.1978 164.382 12.2784C163.281 13.359 162.654 14.8319 162.641 16.3733C162.466 36.4264 150.952 51.7562 150.817 51.9305C148.865 54.4736 149.343 58.1143 151.887 60.0704C152.852 60.8125 154.027 61.2333 155.245 61.2733C156.169 61.3044 157.087 61.1154 157.923 60.7218C158.759 60.3283 159.49 59.7417 160.053 59.0104C160.383 58.5826 165.003 52.4909 168.892 42.792C169.474 42.853 170.058 42.8939 170.643 42.9147C173.44 43.005 176.689 42.616 179.83 41.0935C182.949 39.5837 187.112 36.3425 189.255 29.4692C190.215 26.4057 188.501 23.1482 185.431 22.1947Z" fill="#FFFDE5"/>
<path d="M168.477 11.7734C165.919 11.7734 163.827 13.8423 163.805 16.3837C163.626 36.9416 151.86 52.4827 151.741 52.6385C150.183 54.6681 150.568 57.588 152.598 59.1493C153.37 59.7441 154.311 60.0806 155.286 60.1109L155.438 60.1132C156.152 60.116 156.857 59.9538 157.498 59.6392C158.139 59.3247 158.698 58.8663 159.132 58.3001C159.327 58.0483 163.938 52.0202 167.813 42.3601C167.907 42.1254 168.074 41.9277 168.291 41.797C168.508 41.6662 168.761 41.6097 169.013 41.6359C169.807 41.7192 170.605 41.7623 171.403 41.765C174.308 41.765 176.974 41.1878 179.323 40.048C182.235 38.6383 186.128 35.5974 188.146 29.123C188.329 28.5405 188.394 27.9277 188.339 27.3198C188.283 26.7119 188.107 26.121 187.822 25.5813C187.538 25.04 187.15 24.5601 186.68 24.1692C186.21 23.7784 185.667 23.4843 185.082 23.3039C184.632 23.1632 184.164 23.0914 183.692 23.0908C182.699 23.0881 181.73 23.4043 180.93 23.9927C180.13 24.5811 179.541 25.4106 179.249 26.3587C178.421 29.0188 177.132 30.752 175.304 31.6562C174.54 32.0348 173.648 32.2803 172.654 32.3932C172.469 32.4135 172.282 32.3895 172.109 32.3232C171.936 32.2569 171.781 32.1503 171.657 32.0122C171.533 31.8741 171.444 31.7085 171.398 31.5292C171.351 31.3499 171.348 31.162 171.389 30.9812C172.498 26.1214 173.08 21.2372 173.121 16.463C173.144 13.961 171.124 11.8573 168.619 11.7757L168.477 11.7734ZM155.438 62.4398L155.21 62.4357C153.748 62.3887 152.338 61.884 151.179 60.9931C148.133 58.6521 147.556 54.2692 149.894 51.2242C150.006 51.0748 161.306 36.0067 161.478 16.3629C161.513 12.5508 164.645 9.44908 168.465 9.44908H168.553L168.697 9.45313C172.457 9.57586 175.487 12.7291 175.452 16.4839C175.415 20.8256 174.946 25.2559 174.054 29.6758C174.13 29.6428 174.202 29.6104 174.274 29.5757C175.498 28.9696 176.4 27.6908 177.029 25.671C177.467 24.2481 178.352 23.0034 179.552 22.1206C180.753 21.2379 182.207 20.7638 183.698 20.7683C184.404 20.7683 185.103 20.8748 185.782 21.0879C186.659 21.3577 187.474 21.7984 188.179 22.3846C188.884 22.9708 189.466 23.6907 189.89 24.5028C190.319 25.3127 190.583 26.1993 190.666 27.1114C190.749 28.0235 190.651 28.9431 190.376 29.8171C188.111 37.0852 183.67 40.5308 180.346 42.1413C177.675 43.4345 174.667 44.0916 171.407 44.0916C171.139 44.0916 170.874 44.0869 170.612 44.0788C170.3 44.069 169.982 44.0522 169.654 44.0279C165.73 53.5184 161.18 59.4666 160.981 59.7224C160.329 60.5706 159.49 61.257 158.528 61.7283C157.567 62.1997 156.509 62.4431 155.438 62.4398Z" fill="black"/>
<path d="M79.3055 9.4404C82.5161 9.23778 85.2777 11.6767 85.4789 14.8774C85.6303 17.3267 86.338 19.0472 87.6396 20.1419C88.2365 20.6433 88.9459 21.012 89.6901 21.2818C89.7637 16.6228 90.2829 11.6443 91.4923 6.52043C92.2179 3.443 95.2707 1.51758 98.3566 2.16421C98.4018 2.17231 98.4488 2.18447 98.494 2.19663C101.625 2.93125 103.564 6.0602 102.83 9.18684C98.2295 28.7073 105.768 46.3256 105.857 46.5282C107.146 49.4603 105.818 52.8833 102.88 54.1806C101.765 54.6746 100.524 54.8057 99.3305 54.5552C98.4254 54.3666 97.5785 53.9653 96.86 53.3846C96.1416 52.8039 95.5722 52.0605 95.1994 51.2161C94.9801 50.7206 91.9412 43.7084 90.4714 33.3646C89.9134 33.2911 89.3357 33.195 88.7388 33.0699C85.9998 32.4974 82.9366 31.3471 80.2487 29.127C77.5793 26.9191 74.3049 22.784 73.856 15.5993C73.6593 12.3974 76.0967 9.63896 79.3055 9.4404Z" fill="#FFFDE5"/>
<path d="M79.6779 10.5907C79.5793 10.5907 79.4789 10.593 79.3786 10.6011C78.7679 10.6373 78.1705 10.7939 77.6208 11.0619C77.0711 11.3299 76.5801 11.7039 76.1761 12.1624C75.7699 12.6189 75.4584 13.1513 75.2595 13.7287C75.0607 14.3061 74.9785 14.9171 75.0178 15.5264C75.4377 22.2908 78.4992 26.1683 80.99 28.2309C83.1715 30.0336 85.8595 31.28 88.976 31.933C89.521 32.0475 90.0701 32.1409 90.6222 32.2132C90.8741 32.2465 91.1082 32.3612 91.2888 32.5395C91.4694 32.7179 91.5867 32.9503 91.6228 33.2013C93.0909 43.5243 96.1332 50.4549 96.2626 50.7455C96.563 51.42 97.0193 52.014 97.5941 52.4786C98.1689 52.9431 98.8459 53.2652 99.5694 53.4182C100.524 53.6163 101.516 53.511 102.407 53.1172C104.75 52.0839 105.819 49.3376 104.79 46.9948C104.712 46.8171 96.9784 28.9349 101.696 8.92114C102.284 6.42435 100.728 3.91598 98.2266 3.3284C98.2226 3.3284 98.1199 3.30408 98.1158 3.30235C96.9253 3.04884 95.6827 3.27225 94.6556 3.92444C93.6286 4.57663 92.8994 5.60539 92.6251 6.78905C91.5306 11.4318 90.9337 16.3137 90.856 21.3003C90.8527 21.4857 90.8051 21.6675 90.7172 21.8308C90.6294 21.9941 90.5037 22.1341 90.3507 22.2392C90.1977 22.3442 90.0218 22.4114 89.8376 22.4349C89.6534 22.4585 89.4662 22.4379 89.2916 22.3748C88.3548 22.0332 87.5468 21.5828 86.8908 21.0323C85.3304 19.7211 84.4876 17.7297 84.3177 14.9492C84.164 12.5057 82.1257 10.5907 79.6779 10.5907ZM100.523 55.8409C100.043 55.8409 99.5613 55.7917 99.0921 55.6933C98.0067 55.4646 96.9913 54.9822 96.129 54.2857C95.2668 53.5892 94.5824 52.6985 94.1321 51.6868C94.0033 51.3944 90.9992 44.5559 89.4436 34.3881C89.1234 34.3348 88.8096 34.2758 88.4981 34.2104C85.0085 33.4798 81.9824 32.0696 79.5056 30.0238C76.6599 27.6682 73.1663 23.2668 72.6947 15.6734C72.6358 14.7596 72.759 13.8432 73.0571 12.9771C73.3552 12.1111 73.8222 11.3126 74.4314 10.6277C75.0367 9.93921 75.773 9.37751 76.5975 8.97524C77.4221 8.57296 78.3185 8.33813 79.2347 8.28435C79.3826 8.27451 79.5323 8.27046 79.6802 8.27046C83.3542 8.27046 86.4128 11.143 86.6425 14.8097C86.7736 16.9238 87.3461 18.3786 88.3914 19.2585C88.4511 19.3095 88.5143 19.3587 88.5805 19.4079C88.7666 14.9 89.3635 10.4865 90.36 6.2611C90.7158 4.72896 91.5821 3.3627 92.8172 2.38585C94.0522 1.409 95.5829 0.879402 97.1588 0.883704C97.6423 0.884288 98.1245 0.934332 98.5979 1.03306L98.729 1.06143C102.514 1.94946 104.847 5.71057 103.967 9.45489C99.4587 28.5771 106.852 45.892 106.926 46.0639C108.472 49.5749 106.869 53.6944 103.353 55.2453C102.461 55.6373 101.497 55.8401 100.523 55.8409Z" fill="black"/>
<path d="M129.039 43.4137C97.0584 39.5687 67.3194 60.8473 63.4835 92.6393C59.8443 122.796 84.9598 139.829 116.94 143.672C148.92 147.517 177.37 136.922 181.009 106.764C184.847 74.9724 161.019 47.2588 129.039 43.4137Z" fill="#D3EDFB"/>
<path d="M139.353 145.002C138.773 145.002 138.271 144.569 138.199 143.98C138.162 143.674 138.249 143.365 138.439 143.123C138.63 142.881 138.909 142.723 139.216 142.686C162.96 139.829 177.392 127.022 179.854 106.625C181.657 91.6985 177.289 77.0414 167.561 65.3517C157.937 53.7881 144.206 46.4078 128.901 44.568C113.596 42.7283 98.5016 46.6451 86.4029 55.5972C74.1709 64.6477 66.4435 77.8518 64.6413 92.7788C62.179 113.177 73.1518 129.038 95.5387 137.437C95.8279 137.546 96.0621 137.765 96.1897 138.046C96.3174 138.327 96.3282 138.647 96.2197 138.936C96.1105 139.224 95.8911 139.457 95.6097 139.585C95.3283 139.712 95.0078 139.723 94.7185 139.615C71.2289 130.8 59.7248 114.068 62.3263 92.5009C64.2045 76.9331 72.262 63.164 85.0126 53.7291C97.5932 44.4204 113.276 40.3467 129.177 42.2599C145.078 44.1709 159.346 51.8442 169.351 63.8656C179.494 76.0509 184.045 91.3361 182.165 106.902C179.563 128.469 164.409 141.997 139.495 144.994C139.448 145 139.4 145.003 139.353 145.002Z" fill="black"/>
<path d="M150.122 54.627L152.127 50.9845C146.218 47.3386 143.757 44.9993 139.899 39.2416C137.666 35.9042 134.199 32.3949 129.289 31.8056C119.85 30.6698 114.447 39.626 118.716 46.8634C116.036 48.8281 114.219 51.8813 113.904 55.5538C113.214 63.6283 120.629 67.1497 125.58 67.2933C132.428 67.4913 135.815 63.6792 136.329 59.4232C136.891 54.7497 150.122 54.627 150.122 54.627Z" fill="#D3EDFB"/>
<path d="M152.125 52.147C151.911 52.1471 151.702 52.0884 151.52 51.9774C145.574 48.3615 142.868 45.7629 138.929 39.8882C136.151 35.7363 132.858 33.4057 129.149 32.9593C125.217 32.4887 121.721 33.9562 119.798 36.886C117.973 39.6694 117.942 43.2667 119.718 46.274C119.795 46.4057 119.846 46.5513 119.867 46.7026C119.889 46.8539 119.88 47.0078 119.841 47.1556C119.803 47.3035 119.736 47.4423 119.643 47.5642C119.551 47.6861 119.436 47.7886 119.304 47.866C119.172 47.9434 119.026 47.9941 118.874 48.0152C118.723 48.0363 118.569 48.0274 118.42 47.9891C118.272 47.9507 118.133 47.8835 118.011 47.7915C117.889 47.6995 117.786 47.5843 117.709 47.4527C115.482 43.6777 115.535 39.1391 117.848 35.6136C120.265 31.926 124.596 30.0724 129.426 30.6513C133.781 31.1752 137.736 33.9232 140.865 38.5967C144.621 44.2033 147.06 46.5467 152.73 49.9923C152.993 50.1528 153.183 50.4114 153.256 50.7111C153.329 51.0108 153.279 51.3272 153.119 51.5906C153.015 51.7608 152.869 51.9013 152.695 51.9988C152.521 52.0962 152.324 52.1473 152.125 52.147Z" fill="black"/>
<path d="M126.089 68.4615C125.91 68.4615 125.73 68.4592 125.545 68.4534C122.675 68.3695 118.308 67.1358 115.441 63.9293C113.397 61.6415 112.464 58.7111 112.743 55.4536C113.067 51.6578 114.872 48.3286 117.82 46.0778C120.901 43.7269 124.824 42.8365 128.866 43.5671C129.017 43.5945 129.16 43.6512 129.289 43.734C129.417 43.8167 129.528 43.9239 129.615 44.0494C129.702 44.1749 129.763 44.3162 129.795 44.4653C129.827 44.6145 129.83 44.7685 129.802 44.9185C129.775 45.0686 129.718 45.2118 129.635 45.34C129.552 45.4681 129.445 45.5787 129.319 45.6655C129.193 45.7522 129.052 45.8134 128.902 45.8455C128.753 45.8776 128.599 45.88 128.448 45.8526C125.057 45.239 121.785 45.9736 119.232 47.9216C116.811 49.7694 115.331 52.5134 115.062 55.6482C114.837 58.2897 115.548 60.5549 117.178 62.3779C119.55 65.0339 123.204 66.0573 125.611 66.1268C132.04 66.3213 134.757 62.7119 135.172 59.2802C135.399 57.3831 134.7 55.515 133.299 54.2854C131.926 53.0778 130.072 52.6547 128.213 53.123C126.634 53.5201 126.189 54.8458 126.07 55.3986C125.843 56.4604 126.148 57.371 126.552 57.6859C126.672 57.7803 126.773 57.8975 126.848 58.0307C126.922 58.1639 126.97 58.3105 126.988 58.4621C127.007 58.6138 126.994 58.7675 126.953 58.9145C126.912 59.0615 126.842 59.199 126.747 59.319C126.652 59.439 126.535 59.5392 126.401 59.6139C126.268 59.6886 126.121 59.7364 125.969 59.7544C125.662 59.7909 125.353 59.7042 125.111 59.5135C123.932 58.5866 123.403 56.7388 123.792 54.9135C124.227 52.8799 125.666 51.3672 127.643 50.8699C130.257 50.2111 132.879 50.8213 134.837 52.5418C136.814 54.2773 137.802 56.9003 137.482 59.5604C136.984 63.7105 133.693 68.4615 126.089 68.4615Z" fill="black"/>
<path d="M92.1274 105.876C91.4552 111.442 86.3867 115.414 80.8078 114.743C75.2272 114.074 71.2498 109.015 71.9221 103.446C72.5944 97.8777 77.6605 93.9082 83.2417 94.5792C88.8206 95.2507 92.7997 100.307 92.1274 105.876Z" fill="#F6BEC8"/>
<path d="M170.241 115.264C169.568 120.832 164.5 124.804 158.921 124.133C153.34 123.462 149.363 118.403 150.035 112.835C150.708 107.266 155.774 103.296 161.355 103.967C166.934 104.638 170.913 109.695 170.241 115.264Z" fill="#F6BEC8"/>
<path d="M105.231 90.4724C105.103 91.4754 104.583 92.3872 103.784 93.0089C102.985 93.6306 101.972 93.9117 100.966 93.791C99.9603 93.6702 99.0431 93.1574 98.4147 92.3643C97.7863 91.5713 97.4977 90.5624 97.6118 89.5578C97.7337 88.5495 98.2518 87.6308 99.0523 87.0038C99.8528 86.3767 100.87 86.0927 101.88 86.214C102.381 86.274 102.864 86.4317 103.303 86.6782C103.742 86.9247 104.128 87.2551 104.439 87.6505C104.751 88.046 104.981 88.4987 105.116 88.9829C105.252 89.4671 105.291 89.9733 105.231 90.4724Z" fill="black"/>
<path d="M148.59 95.6825C148.468 96.6907 147.95 97.6092 147.15 98.2361C146.349 98.8631 145.332 99.1473 144.322 99.0263C143.822 98.9662 143.338 98.8084 142.899 98.5618C142.46 98.3153 142.074 97.9848 141.762 97.5893C141.134 96.7906 140.849 95.7753 140.971 94.767C141.092 93.7587 141.61 92.8398 142.41 92.2126C143.211 91.5854 144.228 91.3011 145.238 91.4224C145.739 91.4824 146.222 91.6401 146.662 91.8867C147.101 92.1333 147.487 92.4638 147.799 92.8594C148.11 93.255 148.34 93.708 148.476 94.1924C148.612 94.6768 148.651 95.1831 148.59 95.6825Z" fill="black"/>
<path d="M130.513 98.6187C130.348 98.6193 130.185 98.5848 130.034 98.5176C129.884 98.4504 129.749 98.352 129.64 98.2289C129.53 98.1058 129.448 97.9609 129.399 97.8037C129.35 97.6466 129.335 97.4808 129.355 97.3174C129.636 94.9867 128.726 93.3496 127.036 93.147C125.348 92.9443 124.069 94.3198 123.788 96.6481C123.749 96.9526 123.591 97.2294 123.349 97.4181C123.106 97.6067 122.799 97.692 122.493 97.6552C122.188 97.6185 121.91 97.4627 121.719 97.2218C121.528 96.981 121.441 96.6747 121.476 96.3697C121.625 95.1361 121.441 94.0825 120.947 93.3212C120.528 92.6786 119.909 92.2896 119.156 92.1999C118.404 92.1096 117.709 92.3388 117.15 92.865C116.487 93.4868 116.059 94.4669 115.909 95.7011C115.871 96.0067 115.714 96.2849 115.471 96.475C115.228 96.6651 114.92 96.7517 114.614 96.7159C114.462 96.6977 114.315 96.6499 114.181 96.575C114.048 96.5002 113.931 96.3999 113.836 96.2797C113.742 96.1596 113.672 96.0221 113.631 95.875C113.589 95.728 113.578 95.5742 113.596 95.4226C113.812 93.6402 114.488 92.1709 115.552 91.1723C116.616 90.1737 117.994 89.7199 119.434 89.8935C120.873 90.0655 122.103 90.8331 122.898 92.0563C122.978 92.1793 123.053 92.3056 123.122 92.4349C124.184 91.2464 125.656 90.6426 127.313 90.8412C130.313 91.2013 132.102 93.98 131.668 97.5975C131.633 97.879 131.497 98.1382 131.284 98.3263C131.072 98.5144 130.797 98.6184 130.513 98.6187Z" fill="black"/>
<path d="M137.816 106.689C137.744 124.359 132.024 137.562 117.883 135.862C103.745 134.161 101.328 119.983 105.46 102.799L122.018 101.594L137.816 106.689Z" fill="#BF6180"/>
<path d="M106.398 103.896C103.806 115.181 104.362 123.9 108.016 129.144C110.217 132.301 113.584 134.174 118.021 134.708C118.766 134.799 119.515 134.845 120.266 134.847C134.046 134.847 136.484 118.121 136.641 107.532L121.873 102.771L106.398 103.896ZM120.268 137.172C119.452 137.172 118.603 137.118 117.744 137.016C112.616 136.4 108.7 134.198 106.105 130.472C101.971 124.542 101.358 114.878 104.329 102.529C104.387 102.289 104.519 102.074 104.707 101.914C104.896 101.754 105.13 101.659 105.377 101.641L121.935 100.436C122.085 100.425 122.234 100.444 122.377 100.489L138.175 105.584C138.41 105.66 138.615 105.809 138.76 106.008C138.904 106.208 138.982 106.448 138.981 106.695C138.901 126.063 132.079 137.172 120.268 137.172Z" fill="black"/>
<path d="M104.048 121.808C105.299 129.531 109.557 134.861 117.883 135.862C126.209 136.863 131.614 132.692 134.665 125.489C134.665 125.489 130.864 120.2 119.931 118.886C109.002 117.571 104.048 121.808 104.048 121.808Z" fill="#F6BEC8"/>
<path d="M105.324 122.333C106.732 129.701 111.001 133.865 118.023 134.708C125.033 135.551 130.183 132.515 133.302 125.697C132.088 124.441 128.098 121.039 119.792 120.041C118.483 119.881 117.165 119.799 115.846 119.795C109.988 119.795 106.556 121.553 105.324 122.333ZM120.266 137.172C119.423 137.169 118.581 137.118 117.744 137.017C109.463 136.022 104.329 130.826 102.898 121.995C102.866 121.799 102.886 121.597 102.955 121.41C103.023 121.223 103.139 121.057 103.29 120.927C103.453 120.786 107.423 117.473 115.846 117.473C117.207 117.473 118.627 117.561 120.069 117.735C131.379 119.094 135.442 124.582 135.61 124.815C135.726 124.977 135.798 125.166 135.821 125.363C135.843 125.561 135.814 125.761 135.737 125.944C132.625 133.288 127.274 137.172 120.266 137.172Z" fill="black"/>
<path d="M110.336 104.422C109.838 108.553 107.127 111.627 105.387 111.418C103.646 111.209 101.743 107.579 102.244 103.45C102.742 99.3163 110.836 100.288 110.336 104.422Z" fill="white"/>
<path d="M105.959 101.955C105.565 101.955 103.586 102.033 103.4 103.589C103.197 105.266 103.433 107.036 104.044 108.442C104.593 109.706 105.245 110.23 105.526 110.265L105.559 110.267C106.445 110.267 108.731 108.006 109.181 104.284C109.241 103.797 109.11 103.384 108.786 103.017C108.212 102.371 107.102 101.955 105.959 101.955ZM105.559 112.59C105.454 112.59 105.35 112.584 105.249 112.571C103.943 112.414 102.725 111.247 101.909 109.367C101.126 107.566 100.835 105.416 101.089 103.31C101.354 101.11 103.312 99.6312 105.961 99.6312C107.769 99.6312 109.52 100.337 110.529 101.473C111.3 102.34 111.634 103.409 111.495 104.561C110.975 108.837 108.203 112.59 105.559 112.59Z" fill="black"/>
<path d="M140.787 108.083C140.287 112.212 137.576 115.288 135.837 115.079C134.097 114.87 132.194 111.24 132.692 107.111C133.191 102.977 141.283 103.949 140.787 108.083Z" fill="white"/>
<path d="M136.405 105.614C136.011 105.614 134.035 105.694 133.847 107.247C133.644 108.925 133.879 110.693 134.491 112.098C135.04 113.363 135.692 113.887 135.975 113.922L136.006 113.924C136.891 113.924 139.179 111.662 139.629 107.941C139.686 107.454 139.557 107.041 139.231 106.674C138.661 106.032 137.551 105.614 136.405 105.614ZM136.007 116.25C135.903 116.25 135.8 116.244 135.698 116.232C134.392 116.074 133.174 114.908 132.356 113.028C131.573 111.227 131.282 109.077 131.536 106.97C131.803 104.771 133.759 103.292 136.405 103.292C138.214 103.292 139.964 103.998 140.976 105.133C141.746 106.001 142.083 107.069 141.943 108.221C141.426 112.498 138.652 116.25 136.007 116.25Z" fill="black"/>
<path d="M97.9586 98.0537C97.9586 98.0537 97.2162 104.207 107.212 105.41C117.266 106.619 122.017 101.595 122.017 101.595C122.017 101.595 125.437 107.599 135.491 108.809C145.486 110.01 146.23 103.855 146.23 103.855C146.23 103.855 136.518 100.464 122.357 98.764C108.2 97.0592 97.9586 98.0537 97.9586 98.0537Z" fill="#D3EDFB"/>
<path d="M137.924 110.124C137.065 110.121 136.207 110.067 135.354 109.963C127.433 109.009 123.39 105.223 121.811 103.298C119.821 104.794 114.992 107.515 107.072 106.564C102.561 106.022 99.4575 104.452 97.8496 101.9C96.6031 99.9201 96.7777 98.1151 96.802 97.9165C96.8398 97.6108 96.9973 97.3324 97.2401 97.1422C97.4829 96.952 97.7913 96.8656 98.0979 96.9017C98.4029 96.9378 98.6812 97.0931 98.8717 97.3335C99.0623 97.574 99.1497 97.88 99.1147 98.1845C99.0921 98.4161 98.7481 103.224 107.349 104.258C116.719 105.385 121.125 100.847 121.167 100.8C121.292 100.668 121.447 100.566 121.618 100.504C121.789 100.442 121.973 100.421 122.154 100.443C122.335 100.465 122.508 100.529 122.66 100.629C122.811 100.73 122.937 100.865 123.027 101.023C123.154 101.242 126.343 106.539 135.628 107.656C144.252 108.692 145.045 103.91 145.074 103.705C145.117 103.402 145.279 103.128 145.523 102.942C145.767 102.756 146.075 102.673 146.38 102.711C146.683 102.749 146.959 102.906 147.148 103.147C147.336 103.388 147.421 103.693 147.384 103.996C147.38 104.059 146.54 110.122 137.924 110.124Z" fill="black"/>
<path d="M47.4029 133.583C42.6361 145.052 48.4568 159.003 61.2034 162.457L61.0497 162.133C63.4093 164.537 66.7144 166.297 71.0282 166.944C79.0856 168.143 87.4981 163.369 91.3177 154.595C93.7266 149.06 94.4528 142.887 91.8386 137.876C88.9232 132.289 82.5242 127.706 75.2167 127.608C74.7141 127.602 74.2114 127.616 73.7098 127.648L73.7138 127.646C69.0949 127.945 63.6042 125.766 59.7968 121.608C56.2295 117.71 54.0334 115.003 51.2799 115.179C48.744 115.34 46.708 117.473 45.9864 121.375C45.4284 124.387 45.7666 129.159 47.4191 133.609L47.4029 133.583Z" fill="white"/>
<path d="M73.4888 168.288C72.6135 168.288 71.7359 168.224 70.8583 168.094C63.1083 166.936 57.6605 162.221 55.9099 155.158C54.8269 150.783 55.5694 145.849 57.8942 141.959C60.7156 137.237 66.657 133.431 71.0039 135.291C72.9128 136.107 74.1431 137.74 74.4644 139.891C74.918 142.911 73.4644 146.335 70.7597 148.616C68.3385 150.658 66.3559 150.856 65.1216 150.664C63.9284 150.478 62.8809 149.829 62.3171 148.929C61.708 147.955 61.552 146.586 61.8989 145.264C62.2776 143.822 63.1842 142.645 64.4534 141.951C64.5876 141.878 64.735 141.832 64.887 141.815C65.0391 141.799 65.1929 141.813 65.3397 141.856C65.4865 141.899 65.6233 141.97 65.7425 142.066C65.8616 142.161 65.9607 142.28 66.034 142.414C66.1074 142.548 66.1536 142.695 66.17 142.846C66.1864 142.998 66.1727 143.152 66.1296 143.298C66.0866 143.445 66.0151 143.581 65.9192 143.7C65.8232 143.819 65.7048 143.918 65.5706 143.991C64.6233 144.507 64.2747 145.379 64.15 145.853C63.9429 146.641 64.0717 147.347 64.291 147.697C64.4453 147.944 64.8507 148.268 65.4806 148.366C66.5526 148.536 67.8913 147.99 69.2568 146.84C71.3258 145.095 72.4923 142.44 72.1605 140.232C72.0189 139.295 71.545 138.049 70.0851 137.425C67.2602 136.22 62.4052 138.945 59.8936 143.148C57.8762 146.524 57.2301 150.805 58.1692 154.599C59.6802 160.7 64.4308 164.783 71.2005 165.794C78.9279 166.942 86.7603 162.147 90.2498 154.132C92.8188 148.233 93.0155 142.649 90.8055 138.411C88.3391 133.683 82.5572 128.868 75.2005 128.77C65.8699 128.661 60.32 135.371 60.2643 135.438C60.0713 135.679 59.7904 135.833 59.4834 135.867C59.1765 135.901 58.8685 135.812 58.6274 135.619C58.3863 135.426 58.2317 135.146 58.1976 134.84C58.1636 134.533 58.2528 134.226 58.4458 133.985C58.6941 133.675 64.6048 126.445 74.9406 126.445C75.0369 126.445 75.1332 126.445 75.2312 126.447C82.4319 126.543 89.5219 130.92 92.8699 137.339C95.4122 142.211 95.2382 148.503 92.3861 155.059C88.8681 163.138 81.3473 168.288 73.4888 168.288Z" fill="black"/>
<path d="M51.7353 141.82C51.4359 141.82 51.1343 141.706 50.9069 141.475C45.1929 135.706 43.9197 126.124 44.8402 121.164C45.6297 116.895 48.0102 114.223 51.2045 114.018C54.2817 113.822 56.5966 116.359 59.7909 119.872L60.6581 120.822C64.074 124.552 69.1709 126.78 73.6401 126.484C73.9484 126.464 74.2521 126.567 74.4844 126.77C74.7166 126.974 74.8584 127.261 74.8785 127.568C74.8987 127.876 74.7956 128.179 74.5918 128.411C74.3881 128.643 74.1004 128.784 73.7921 128.804C68.6419 129.138 62.813 126.621 58.94 122.389L58.0688 121.434C55.2086 118.289 53.3159 116.208 51.3559 116.337C49.2648 116.47 47.7248 118.383 47.1326 121.583C46.3286 125.921 47.4992 134.722 52.5659 139.838C52.6734 139.946 52.7584 140.075 52.8161 140.216C52.8738 140.357 52.903 140.509 52.902 140.661C52.9011 140.814 52.8699 140.965 52.8105 141.105C52.751 141.246 52.6643 141.373 52.5554 141.48C52.4478 141.588 52.32 141.674 52.1793 141.732C52.0385 141.79 51.8876 141.82 51.7353 141.82Z" fill="black"/>
<path d="M61.2034 163.619C61.103 163.619 61.0003 163.607 60.8977 163.578C54.7266 161.904 49.7712 157.818 46.9435 152.07C44.0224 146.128 43.7967 139.226 46.3263 133.136C46.4446 132.852 46.6714 132.625 46.9567 132.508C47.242 132.39 47.5626 132.39 47.8478 132.508C48.133 132.626 48.3595 132.852 48.4776 133.137C48.5956 133.422 48.5954 133.742 48.4771 134.027C46.2033 139.498 46.4064 145.702 49.0328 151.044C51.5607 156.185 55.9893 159.837 61.5067 161.333C61.6544 161.373 61.7928 161.441 61.9139 161.535C62.0351 161.628 62.1366 161.744 62.2126 161.877C62.2885 162.009 62.3376 162.155 62.3568 162.307C62.376 162.458 62.3651 162.612 62.3246 162.759C62.2588 163.006 62.1131 163.224 61.9104 163.379C61.7076 163.535 61.4591 163.619 61.2034 163.619Z" fill="black"/>
<path d="M78.0607 138.456C83.0329 132.704 74.2759 126.762 70.639 116.036C67.6024 107.078 67.8055 101.117 70.2556 94.5548C72.4145 88.7682 66.5502 85.6514 64.1088 88.2749C64.1088 88.2749 62.8704 73.8922 50.878 76.9777C38.1419 80.2537 36.2637 104.603 46.9336 120.73C55.3089 133.396 71.9696 145.506 78.0607 138.456Z" fill="#D3EDFB"/>
<path d="M54.0665 77.7065C53.1663 77.7065 52.1906 77.8397 51.1674 78.1037C46.6013 79.2783 44.1883 83.2929 42.9702 86.452C39.2736 96.0345 41.3484 110.18 47.9052 120.09C54.8188 130.542 66.3884 139.373 73.1686 139.373C74.8931 139.373 76.2052 138.825 77.1791 137.697C79.6251 134.868 78.0712 132.044 74.8728 126.883C73.0277 123.906 70.9343 120.532 69.5358 116.409C66.563 107.641 66.4586 101.397 69.1645 94.1479C69.7672 92.5356 69.6732 91.0374 68.9024 89.9288C68.2974 89.0588 67.2927 88.4961 66.3478 88.4961C65.958 88.4961 65.4006 88.5945 64.9638 89.0651C64.8105 89.2296 64.6127 89.3462 64.3943 89.4006C64.1759 89.4551 63.9464 89.4451 63.7336 89.3719C63.5204 89.2987 63.333 89.1655 63.194 88.9883C63.0551 88.811 62.9705 88.5975 62.9505 88.3733C62.9093 87.9415 61.9111 77.7065 54.0665 77.7065ZM73.1686 141.698C64.6663 141.698 52.4261 131.145 45.9598 121.371C39.0218 110.882 36.8484 95.8464 40.795 85.6172C42.8246 80.3544 46.2121 76.976 50.5851 75.8529C51.7991 75.5397 52.9696 75.3823 54.0665 75.3823C61.0682 75.3823 64.1065 81.8092 65.0091 86.3761C65.4314 86.2436 65.8803 86.1735 66.3455 86.1735C68.0578 86.1735 69.7695 87.105 70.813 88.6049C72.0329 90.3561 72.2214 92.6132 71.3461 94.9601C68.849 101.653 68.9598 107.459 71.7417 115.664C73.0543 119.536 75.0735 122.789 76.8531 125.661C79.947 130.653 82.6205 134.964 78.9447 139.216C77.5195 140.863 75.5758 141.698 73.1686 141.698Z" fill="black"/>
<path d="M64.1065 88.2773C64.1065 88.2773 62.5874 89.6336 62.3861 92.1426Z" fill="#D3EDFB"/>
<path d="M62.3867 93.3044C62.3559 93.3044 62.3229 93.3021 62.2921 93.3004C62.1396 93.2882 61.991 93.2462 61.8547 93.1767C61.7185 93.1072 61.5973 93.0115 61.4981 92.8952C61.3989 92.7789 61.3237 92.6443 61.2767 92.4989C61.2297 92.3536 61.2119 92.2004 61.2243 92.0482C61.4598 89.1114 63.2539 87.4789 63.3298 87.4095C63.5607 87.2149 63.8584 87.1174 64.1599 87.1378C64.4615 87.1581 64.7433 87.2947 64.9458 87.5185C65.1484 87.7424 65.2558 88.0361 65.2454 88.3375C65.235 88.639 65.1076 88.9246 64.8902 89.134C64.8287 89.1913 63.7051 90.2681 63.545 92.2323C63.5226 92.5237 63.3908 92.7959 63.1761 92.9946C62.9614 93.1933 62.6795 93.304 62.3867 93.3044Z" fill="black"/>
<path d="M35.259 101.569C35.0984 101.569 34.9417 101.519 34.8107 101.427C34.6796 101.334 34.5805 101.203 34.527 101.052C31.6813 93.0242 35.3901 83.3844 35.5502 82.9774C35.5872 82.8827 35.6426 82.7962 35.7131 82.7228C35.7836 82.6494 35.8679 82.5906 35.9612 82.5498C36.0545 82.5089 36.155 82.4868 36.2568 82.4847C36.3587 82.4826 36.4599 82.5005 36.5549 82.5375C36.6498 82.5744 36.7365 82.6296 36.81 82.7C36.8835 82.7704 36.9424 82.8546 36.9833 82.9477C37.0243 83.0408 37.0464 83.141 37.0486 83.2427C37.0507 83.3443 37.0327 83.4454 36.9957 83.5401C36.9586 83.6345 33.3402 93.0572 35.991 100.532C36.0251 100.628 36.0399 100.73 36.0345 100.831C36.0291 100.933 36.0037 101.032 35.9596 101.124C35.9156 101.216 35.8539 101.298 35.7779 101.366C35.702 101.434 35.6134 101.486 35.5172 101.52C35.4351 101.553 35.3475 101.57 35.259 101.569Z" fill="#929A9F"/>
<path d="M34.2405 107.832C34.0334 107.832 33.824 107.749 33.6726 107.585C27.6732 101.146 28.6656 91.35 28.7109 90.935C28.7217 90.8338 28.7524 90.7359 28.8013 90.6466C28.8502 90.5574 28.9162 90.4787 28.9957 90.415C29.0751 90.3513 29.1664 90.3039 29.2642 90.2755C29.3621 90.2471 29.4646 90.2383 29.5659 90.2495C29.6673 90.2604 29.7655 90.291 29.8551 90.3398C29.9446 90.3885 30.0236 90.4544 30.0876 90.5337C30.1516 90.6129 30.1993 90.704 30.228 90.8016C30.2567 90.8993 30.2659 91.0016 30.255 91.1028C30.2445 91.1966 29.299 100.618 34.8106 106.529C34.9137 106.639 34.982 106.778 35.0074 106.927C35.0328 107.076 35.0141 107.229 34.9535 107.367C34.893 107.506 34.7932 107.623 34.6666 107.706C34.5399 107.789 34.3918 107.833 34.2405 107.832Z" fill="#929A9F"/>
</svg>
